<?xml version="1.0" encoding="utf-8"?>
<!-- Generator: Adobe Illustrator 26.5.0, SVG Export Plug-In . SVG Version: 6.00 Build 0)  -->
<svg version="1.1" id="Calque_1" xmlns="http://www.w3.org/2000/svg" xmlns:xlink="http://www.w3.org/1999/xlink" x="0px" y="0px"
	 viewBox="0 0 794 296" style="enable-background:new 0 0 794 296;" xml:space="preserve">
<path d="M124.1,88.5l-11.5,3.1c-15.2,0-25.4-3.9-30.6-11.7c-2.7-3.9-4.6-8.2-5.7-13c-1.1-4.9-1.6-10.8-1.6-17.6
	c0-15.5,2.9-26.7,8.7-33.8c5.8-7.1,16.2-10.7,31.1-10.7c15,0,25.4,3.6,31.3,10.7c5.9,7.1,8.8,18.4,8.8,33.8
	c0,11.5-2.4,20.8-7.2,27.8l9.7,5.7l-7,15.6l-26-4.7V88.5z M103.8,70.4h11.2c3.7,0,6.4-0.4,8-1.2c1.7-0.9,2.6-2.9,2.6-6V28h-11.4
	c-3.6,0-6.3,0.5-8,1.4c-1.6,0.8-2.4,2.8-2.4,5.8V70.4z M189.8,23.7v50.1h4.2c3.2,0,5.6-0.3,7-1c1.5-0.7,2.3-2.3,2.3-4.7V23.7h27.1
	v67.9h-13.5l-7.9-7.7c-5.4,6.5-13.1,9.8-23.1,9.8c-8,0-13.9-1.7-17.6-5.2c-3.7-3.4-5.6-9.2-5.6-17.2V23.7H189.8z M270.3,68.5v4.7
	c2.7,0.3,5.4,0.4,8.1,0.4c8.4,0,16.9-1.4,25.5-4.1l3.2,19.9c-10.1,2.7-20.1,4.1-30.1,4.1c-12.6,0-21.8-2.9-27.5-8.8
	c-5.6-6-8.4-15-8.4-27.1c0-12.1,2.8-21.1,8.4-27c5.7-6,14.8-9,27.3-9c12.6,0,21.3,1.7,26.1,5.2c4.8,3.4,7.2,9.9,7.2,19.3
	c0,8-2.9,13.7-8.7,17.2C295.9,66.8,285.5,68.5,270.3,68.5z M270.3,47.2v5.6h5.5c3.2,0,5.6-0.3,7-1c1.5-0.7,2.3-2.3,2.3-4.7v-5.6
	h-5.5c-3.2,0-5.6,0.4-7.2,1.1C271,43.2,270.3,44.8,270.3,47.2z M326.8,26.5c5.9-3.2,13.9-4.7,24-4.7c10.1,0,19.4,1.4,27.9,4.2
	l-3.1,18.5c-7-2-14.1-3-21.1-3c-2.2,0-5.2,0.2-9.2,0.5v4.3c14.6,0,24.5,2.2,29.8,6.5c2.6,2.2,4.5,4.6,5.6,7.2
	c1.1,2.5,1.6,5.7,1.6,9.4c0,3.6-0.5,6.9-1.4,9.8c-0.8,2.9-2.1,5.2-3.9,6.9c-1.7,1.7-3.5,3.1-5.4,4.2s-4.4,1.9-7.4,2.3
	c-4.8,0.7-10.3,1.1-16.7,1.1c-11.2,0-21.3-1.3-30.3-3.9l3.4-19.3c7.6,2.4,15.8,3.5,24.6,3.5c4.1,0,7.8-0.2,11.1-0.5v-4.3
	c-14.4,0-24.4-1.9-29.9-5.7c-5.4-3.8-8.1-10.1-8.1-18.9C318.1,35.6,321,29.6,326.8,26.5z M387.6,41.3V23.7h6.8V12.9l27.1-6.8v17.6
	h9.3v17.5h-9.3v30.9c2.3,0.5,5,0.8,8,0.9l-1.2,19.9c-12.4,0-20.4-0.7-24.1-2c-4.6-1.6-7.5-3.8-8.7-6.5c-0.7-1.6-1.1-3.5-1.1-5.7
	V41.3H387.6z M441,91.6V27.1l27.1-3.4v67.9H441z M442.5,19.4c-2-1.5-3-4.3-3-8.4c0-4.1,1-6.9,3-8.5c2.1-1.6,6.1-2.4,12-2.4
	c6,0,10.1,0.8,12,2.4c2.1,1.6,3.1,4.5,3.1,8.5c0,4.1-1,6.9-3.1,8.4c-2,1.5-6,2.3-12,2.3C448.6,21.7,444.6,20.9,442.5,19.4z
	 M487.3,84.8c-5.6-6-8.4-15-8.4-27.1c0-12.1,2.8-21.1,8.4-27c5.7-6,14.8-9,27.5-9c12.6,0,21.8,3,27.3,9c5.7,5.9,8.5,14.9,8.5,27
	c0,12.1-2.8,21.2-8.5,27.1c-5.6,5.9-14.7,8.8-27.3,8.8C502.1,93.6,493,90.7,487.3,84.8z M508,47.2v26.6h4.2c3.2,0,5.6-0.3,7-1
	c1.5-0.7,2.3-2.3,2.3-4.7V41.5h-4.2c-3.2,0-5.6,0.4-7.2,1.1C508.7,43.2,508,44.8,508,47.2z M575,23.7l6.8,6.8
	c8.4-5.9,17.4-8.8,27.1-8.8c6.3,0,11.3,1.4,14.9,4.2c3.6,2.7,5.4,6.5,5.4,11.4v54.3H602V44.1h-4.2c-3.1,0-5.4,0.4-7,1.1
	c-1.5,0.6-2.3,2-2.3,4.1v42.3h-27.1V23.7H575z M648.3,26.5c5.9-3.2,13.9-4.7,24-4.7c10.1,0,19.4,1.4,27.9,4.2L697,44.4
	c-7-2-14.1-3-21.1-3c-2.2,0-5.2,0.2-9.2,0.5v4.3c14.6,0,24.5,2.2,29.8,6.5c2.6,2.2,4.5,4.6,5.5,7.2c1.1,2.5,1.6,5.7,1.6,9.4
	c0,3.6-0.5,6.9-1.4,9.8c-0.8,2.9-2.1,5.2-3.9,6.9c-1.7,1.7-3.5,3.1-5.4,4.2c-1.9,1.1-4.4,1.9-7.4,2.3c-4.8,0.7-10.3,1.1-16.7,1.1
	c-11.2,0-21.3-1.3-30.3-3.9l3.4-19.3c7.6,2.4,15.8,3.5,24.6,3.5c4.1,0,7.8-0.2,11.1-0.5v-4.3c-14.4,0-24.4-1.9-29.9-5.7
	c-5.4-3.8-8.1-10.1-8.1-18.9C639.6,35.6,642.5,29.6,648.3,26.5z M251.8,112.6h8.1l3,4.1c2.4-3.5,6.8-5.3,13.2-5.3
	c3.3,0,6.1,0.6,8.5,1.9c2.4,1.2,4.2,3,5.4,5.1c2.3,4.1,3.5,8.9,3.5,14.6c0,6.9-1.5,12.1-4.5,15.6c-1.2,1.4-2.8,2.5-4.8,3.4
	c-2,0.9-4.3,1.3-7,1.3H268v12.2l-16.2,1.2V112.6z M268,126.3v16.4h2.5c1.9,0,3.4-0.2,4.2-0.6c0.9-0.4,1.4-1.4,1.4-2.9v-16h-2.5
	c-1.2,0-2.1,0.1-2.8,0.2c-0.7,0.1-1.3,0.4-1.9,0.9C268.4,124.7,268.1,125.4,268,126.3z M303.5,149.2c-3.4-3.6-5-9-5-16.3
	s1.7-12.7,5-16.2c3.4-3.6,8.9-5.4,16.5-5.4s13,1.8,16.4,5.4c3.4,3.5,5.1,8.9,5.1,16.2s-1.7,12.7-5.1,16.3c-3.4,3.5-8.8,5.3-16.4,5.3
	S306.9,152.8,303.5,149.2z M315.9,126.7v16h2.5c1.9,0,3.4-0.2,4.2-0.6c0.9-0.4,1.4-1.4,1.4-2.9v-16h-2.5c-2,0-3.4,0.2-4.3,0.7
	C316.4,124.3,315.9,125.2,315.9,126.7z M363.4,112.6v30h2.5c1.9,0,3.4-0.2,4.2-0.6c0.9-0.4,1.4-1.4,1.4-2.9v-26.6h16.2v40.7h-8.1
	l-4.7-4.6c-3.2,3.9-7.9,5.9-13.9,5.9c-4.8,0-8.3-1-10.6-3.1s-3.3-5.5-3.3-10.3v-28.5H363.4z M395.9,112.6h8.1l4.5,4.6
	c3.2-2.9,7.2-4.9,12-5.8l1,15.4c-1.3,0.1-3,0.4-5.1,1c-2.1,0.6-3.5,1.4-4.2,2.3v23.3h-16.2V112.6z M454,112.6v30h2.5
	c1.9,0,3.4-0.2,4.2-0.6c0.9-0.4,1.4-1.4,1.4-2.9v-26.6h16.2v40.7h-8.1l-4.7-4.6c-3.2,3.9-7.9,5.9-13.9,5.9c-4.8,0-8.3-1-10.6-3.1
	s-3.3-5.5-3.3-10.3v-28.5H454z M494.6,112.6l4.1,4.1c5-3.5,10.5-5.3,16.2-5.3c3.8,0,6.8,0.8,8.9,2.5c2.2,1.6,3.2,3.9,3.2,6.8v32.6
	h-16.2v-28.5h-2.5c-1.8,0-3.2,0.2-4.2,0.7c-0.9,0.4-1.4,1.2-1.4,2.4v25.4h-16.2v-40.7H494.6z"/>
<image style="overflow:visible;" width="351" height="157" xlink:href="B3F8153B.jpg"  transform="matrix(1.6642 0 0 0.6271 90.1063 166.728)">
</image>
</svg>
