<svg width="794" height="296" viewBox="0 0 794 296" fill="none" xmlns="http://www.w3.org/2000/svg">
<path d="M124.124 88.4842L112.617 91.6055C97.4552 91.6055 87.2573 87.715 82.0228 79.9343C79.3153 76.0438 77.4201 71.701 76.3371 66.906C75.2541 62.0203 74.7126 56.1396 74.7126 49.2634C74.7126 33.7923 77.6005 22.5282 83.3765 15.4712C89.1525 8.32358 99.5309 4.74991 114.512 4.74991C129.494 4.74991 139.917 8.32358 145.783 15.4712C151.649 22.6187 154.583 33.8828 154.583 49.2634C154.583 60.7538 152.191 70.0273 147.408 77.0844L157.155 82.7843L150.115 98.3911L124.124 93.6412V88.4842ZM103.818 70.4345H115.054C118.754 70.4345 121.416 70.0273 123.041 69.2131C124.755 68.3082 125.613 66.318 125.613 63.2418V27.9567H114.241C110.631 27.9567 107.969 28.4089 106.254 29.3138C104.63 30.128 103.818 32.0732 103.818 35.1494V70.4345ZM189.763 23.7496V73.8273H193.96C197.209 73.8273 199.554 73.5107 200.999 72.8773C202.532 72.1536 203.3 70.5702 203.3 68.1274V23.7496H230.375V91.6055H216.838L208.986 83.87C203.571 90.3841 195.855 93.6412 185.837 93.6412C177.806 93.6412 171.938 91.9221 168.239 88.4842C164.539 85.0462 162.689 79.3009 162.689 71.2488V23.7496H189.763ZM270.29 68.5345V73.2844C272.998 73.5559 275.705 73.6916 278.413 73.6916C286.806 73.6916 295.287 72.3344 303.863 69.6202L307.112 89.5699C297.003 92.2841 286.985 93.6412 277.059 93.6412C264.422 93.6412 255.264 90.7007 249.578 84.8199C243.981 78.8486 241.185 69.8011 241.185 57.6776C241.185 45.554 243.981 36.5517 249.578 30.6709C255.264 24.6996 264.378 21.7139 276.923 21.7139C289.557 21.7139 298.266 23.433 303.05 26.871C307.833 30.3089 310.225 36.7328 310.225 46.1421C310.225 54.1039 307.336 59.849 301.561 63.3775C295.876 66.8154 285.452 68.5345 270.29 68.5345ZM270.29 47.2277V52.7919H275.84C279.089 52.7919 281.435 52.4753 282.88 51.8419C284.413 51.1182 285.181 49.5348 285.181 47.092V41.5278H279.631C276.382 41.5278 273.99 41.8898 272.456 42.6135C271.011 43.2469 270.29 44.7849 270.29 47.2277ZM326.797 26.4638C332.665 23.2973 340.652 21.7139 350.758 21.7139C360.867 21.7139 370.163 23.1162 378.645 25.921L375.531 44.3778C368.492 42.3873 361.453 41.3921 354.413 41.3921C352.247 41.3921 349.18 41.573 345.208 41.935V46.2778C359.828 46.2778 369.757 48.4492 374.99 52.7919C377.609 54.9633 379.457 57.361 380.54 59.9847C381.623 62.518 382.165 65.6394 382.165 69.3488C382.165 72.9679 381.714 76.2249 380.811 79.12C379.999 82.0151 378.692 84.3223 376.885 86.0414C375.172 87.7605 373.365 89.1627 371.47 90.2484C369.575 91.3341 367.094 92.1032 364.025 92.5555C359.242 93.2792 353.692 93.6412 347.374 93.6412C336.185 93.6412 326.076 92.3293 317.05 89.7056L320.435 70.4345C328.016 72.7867 336.229 73.963 345.072 73.963C349.134 73.963 352.836 73.7821 356.173 73.4201V69.0774C341.735 69.0774 331.762 67.1774 326.256 63.3775C320.841 59.5775 318.133 53.2896 318.133 44.5135C318.133 35.6471 321.023 29.6303 326.797 26.4638ZM387.629 41.2564V23.7496H394.397V12.8926L421.472 6.10703V23.7496H430.813V41.2564H421.472V72.1987C423.82 72.651 426.481 72.9679 429.459 73.1487L428.241 93.0984C415.877 93.0984 407.846 92.4198 404.144 91.0627C399.541 89.4341 396.654 87.2628 395.48 84.5485C394.759 82.92 394.397 81.02 394.397 78.8486V41.2564H387.629ZM441.002 91.6055V27.1424L468.077 23.7496V91.6055H441.002ZM442.492 19.4068C440.505 17.8688 439.513 15.064 439.513 10.9927C439.513 6.92131 440.505 4.07136 442.492 2.44281C444.566 0.814271 448.583 0 454.54 0C460.585 0 464.602 0.814271 466.588 2.44281C468.663 4.07136 469.701 6.92131 469.701 10.9927C469.701 15.064 468.663 17.8688 466.588 19.4068C464.602 20.9448 460.585 21.7139 454.54 21.7139C448.583 21.7139 444.566 20.9448 442.492 19.4068ZM487.273 84.8199C481.676 78.8486 478.88 69.8011 478.88 57.6776C478.88 45.554 481.676 36.5517 487.273 30.6709C492.958 24.6996 502.117 21.7139 514.753 21.7139C527.387 21.7139 536.504 24.6996 542.099 30.6709C547.784 36.5517 550.627 45.554 550.627 57.6776C550.627 69.8011 547.784 78.8486 542.099 84.8199C536.504 90.7007 527.387 93.6412 514.753 93.6412C502.117 93.6412 492.958 90.7007 487.273 84.8199ZM507.985 47.2277V73.8273H512.181C515.43 73.8273 517.776 73.5107 519.221 72.8773C520.754 72.1536 521.522 70.5702 521.522 68.1274V41.5278H517.326C514.077 41.5278 511.684 41.8898 510.151 42.6135C508.706 43.2469 507.985 44.7849 507.985 47.2277ZM574.972 23.7496L581.741 30.5352C590.134 24.6544 599.16 21.7139 608.815 21.7139C615.133 21.7139 620.098 23.1162 623.706 25.921C627.317 28.6352 629.121 32.4351 629.121 37.3208V91.6055H602.047V44.1064H597.85C594.783 44.1064 592.435 44.4683 590.811 45.1921C589.277 45.8255 588.509 47.1826 588.509 49.2634V91.6055H561.435V23.7496H574.972ZM648.307 26.4638C654.175 23.2973 662.162 21.7139 672.268 21.7139C682.377 21.7139 691.673 23.1162 700.155 25.921L697.041 44.3778C690.002 42.3873 682.963 41.3921 675.923 41.3921C673.757 41.3921 670.69 41.573 666.718 41.935V46.2778C681.338 46.2778 691.267 48.4492 696.5 52.7919C699.119 54.9633 700.967 57.361 702.05 59.9847C703.133 62.518 703.675 65.6394 703.675 69.3488C703.675 72.9679 703.224 76.2249 702.321 79.12C701.509 82.0151 700.202 84.3223 698.395 86.0414C696.682 87.7605 694.875 89.1627 692.98 90.2484C691.085 91.3341 688.604 92.1032 685.535 92.5555C680.752 93.2792 675.202 93.6412 668.884 93.6412C657.695 93.6412 647.586 92.3293 638.56 89.7056L641.945 70.4345C649.526 72.7867 657.739 73.963 666.582 73.963C670.644 73.963 674.346 73.7821 677.683 73.4201V69.0774C663.245 69.0774 653.272 67.1774 647.766 63.3775C642.351 59.5775 639.643 53.2896 639.643 44.5135C639.643 35.6471 642.533 29.6303 648.307 26.4638ZM251.774 112.579H259.896L262.901 116.651C265.284 113.122 269.697 111.358 276.141 111.358C279.444 111.358 282.287 111.982 284.669 113.231C287.052 114.479 288.866 116.189 290.111 118.361C292.44 122.432 293.604 127.29 293.604 132.936C293.604 139.83 292.115 145.041 289.137 148.57C287.945 149.927 286.348 151.067 284.344 151.99C282.341 152.858 280.012 153.293 277.359 153.293H268.018V165.507L251.774 166.728V112.579ZM268.018 126.259V142.626H270.536C272.486 142.626 273.894 142.436 274.76 142.056C275.68 141.622 276.141 140.672 276.141 139.206V123.246H273.623C272.432 123.246 271.484 123.3 270.78 123.409C270.076 123.518 269.453 123.816 268.912 124.305C268.37 124.739 268.073 125.39 268.018 126.259ZM303.491 149.221C300.134 145.639 298.455 140.21 298.455 132.936C298.455 125.662 300.134 120.26 303.491 116.732C306.902 113.149 312.398 111.358 319.979 111.358C327.56 111.358 333.029 113.149 336.386 116.732C339.798 120.26 341.504 125.662 341.504 132.936C341.504 140.21 339.798 145.639 336.386 149.221C333.029 152.75 327.56 154.514 319.979 154.514C312.398 154.514 306.902 152.75 303.491 149.221ZM315.918 126.666V142.626H318.436C320.385 142.626 321.793 142.436 322.66 142.056C323.58 141.622 324.04 140.672 324.04 139.206V123.246H321.523C319.573 123.246 318.138 123.463 317.218 123.898C316.351 124.278 315.918 125.2 315.918 126.666ZM363.422 112.579V142.626H365.94C367.889 142.626 369.297 142.436 370.163 142.056C371.084 141.622 371.544 140.672 371.544 139.206V112.579H387.789V153.293H379.666L374.955 148.651C371.706 152.56 367.077 154.514 361.066 154.514C356.247 154.514 352.727 153.483 350.507 151.42C348.287 149.357 347.177 145.91 347.177 141.079V112.579H363.422ZM395.896 112.579H404.019L408.486 117.139C411.681 114.208 415.688 112.281 420.507 111.358L421.482 126.748C420.182 126.802 418.476 127.128 416.365 127.725C414.307 128.322 412.899 129.082 412.141 130.005V153.293H395.896V112.579ZM454.003 112.579V142.626H456.521C458.47 142.626 459.878 142.436 460.745 142.056C461.665 141.622 462.126 140.672 462.126 139.206V112.579H478.37V153.293H470.248L465.537 148.651C462.288 152.56 457.658 154.514 451.648 154.514C446.828 154.514 443.309 153.483 441.089 151.42C438.869 149.357 437.758 145.91 437.758 141.079V112.579H454.003ZM494.603 112.579L498.664 116.651C503.7 113.122 509.115 111.358 514.909 111.358C518.699 111.358 521.677 112.199 523.843 113.882C526.009 115.511 527.092 117.791 527.092 120.722V153.293H510.847V124.793H508.329C506.488 124.793 505.08 125.01 504.106 125.445C503.185 125.825 502.725 126.639 502.725 127.888V153.293H486.48V112.579H494.603Z" fill="white"/>
<path d="M49.6793 265.946C33.8333 265.946 21.5562 261.724 12.8481 253.28C4.2827 244.837 0 233.888 0 220.436C0 208.128 2.99789 196.106 8.99367 184.371C15.1322 172.635 22.8411 161.83 32.1202 151.955C39.6863 143.941 48.3231 137 58.0305 131.132C67.8808 125.265 78.1592 120.685 88.866 117.393C99.7155 114.102 110.279 112.456 120.558 112.456C128.695 112.456 136.047 113.601 142.614 115.891C149.181 118.037 154.391 121.472 158.246 126.195C162.1 130.918 164.027 137.071 164.027 144.657C164.027 151.383 162.386 157.68 159.102 163.548C155.962 169.272 151.679 174.281 146.254 178.575C140.972 182.868 135.119 186.231 128.695 188.664C122.271 191.097 115.776 192.314 109.209 192.314C100.643 192.314 93.4342 190.382 87.5812 186.517C81.7281 182.51 78.8016 177.501 78.8016 171.49C78.8016 163.762 83.7267 156.177 93.5769 148.735C95.29 147.447 96.6462 146.803 97.6455 146.803C98.3593 146.803 98.7162 147.089 98.7162 147.662C98.7162 149.093 97.5741 150.238 95.29 151.097C87.2957 157.537 83.2985 164.049 83.2985 170.632C83.2985 175.355 85.4398 179.362 89.7225 182.653C94.0052 185.802 99.3586 187.376 105.783 187.376C111.493 187.376 117.203 186.16 122.913 183.727C128.766 181.294 134.12 178.002 138.974 173.852C143.827 169.702 147.682 165.05 150.537 159.898C153.535 154.603 155.034 149.093 155.034 143.369C155.034 134.066 151.893 127.268 145.612 122.975C139.33 118.681 131.336 116.535 121.629 116.535C110.636 116.535 99.7155 118.61 88.866 122.76C78.1592 126.91 68.0949 132.635 58.6729 139.934C49.251 147.233 40.8284 155.605 33.405 165.05C18.5584 183.798 11.135 201.401 11.135 217.86C11.135 226.589 13.1336 234.031 17.1308 240.185C21.128 246.196 26.6241 250.776 33.6192 253.924C40.757 257.073 48.8941 258.647 58.0305 258.647C71.5924 258.647 84.726 255.713 97.4314 249.846C110.137 243.835 120.986 235.82 129.98 225.802C132.407 223.226 134.191 221.938 135.333 221.938C136.19 221.938 136.618 222.582 136.618 223.87C136.618 225.588 135.833 227.234 134.263 228.808C129.409 233.96 123.627 238.754 116.918 243.191C110.208 247.627 102.999 251.563 95.29 254.998C87.7239 258.432 80.0151 261.08 72.1634 262.941C64.3118 264.944 56.8171 265.946 49.6793 265.946ZM157.943 252.422C154.374 252.422 151.59 250.776 149.592 247.484C147.593 244.049 146.594 240.758 146.594 237.609C146.594 229.022 152.804 217.001 165.223 201.544C177.786 185.945 187.922 178.145 195.631 178.145C202.911 178.145 206.552 182.009 206.552 189.738C206.552 190.882 206.409 192.099 206.124 193.387C205.981 194.675 205.767 196.035 205.481 197.466C205.767 197.895 206.48 198.11 207.622 198.11C211.477 198.11 216.045 196.75 221.327 194.031C221.184 196.464 215.545 199.97 204.41 204.55C205.981 209.273 201.27 218.289 190.278 231.599C179 245.481 169.364 252.422 161.369 252.422H157.943ZM161.797 245.981C167.936 245.981 175.788 240.328 185.352 229.022C194.632 218.003 199.271 210.06 199.271 205.194C196.987 203.906 194.132 200.614 190.706 195.319C185.852 195.319 178.857 201.187 169.721 212.922C160.727 224.371 156.373 233.173 156.658 239.327C156.801 243.763 158.514 245.981 161.797 245.981ZM206.606 296C202.323 296 198.683 294.211 195.685 290.633C192.687 287.055 191.117 283.191 190.974 279.041C191.402 277.324 192.045 276.465 192.901 276.465C193.758 276.465 194.257 277.538 194.4 279.685C194.543 281.975 195.685 284.193 197.826 286.34C199.968 288.486 202.038 289.56 204.036 289.56C212.316 289.56 221.024 284.193 230.161 273.459C233.444 269.595 236.799 265.016 240.225 259.72C243.794 254.568 247.22 248.701 250.504 242.117L261.21 220.865L245.15 237.18C240.154 242.189 235.8 245.91 232.088 248.343C228.519 250.776 225.735 251.992 223.737 251.992C220.311 251.992 216.884 250.776 213.458 248.343C210.032 245.767 208.105 242.833 207.677 239.541C206.249 228.522 213.173 215.427 228.448 200.256C243.723 185.229 257.356 177.716 269.347 177.716C272.631 177.716 275.2 178.503 277.056 180.077C278.056 180.936 278.769 182.224 279.198 183.941C279.769 185.659 280.197 186.517 280.482 186.517C281.053 186.517 281.553 186.446 281.981 186.303C282.41 186.017 282.909 185.873 283.48 185.873C285.336 185.873 286.835 186.517 287.977 187.806C289.262 189.094 289.69 190.382 289.262 191.67C289.119 192.958 287.049 196.822 283.052 203.262C280.482 207.555 277.556 212.779 274.273 218.933C270.989 224.944 267.492 231.241 263.78 237.824C260.211 244.264 256.713 250.275 253.287 255.856C249.861 261.581 246.792 266.232 244.08 269.81C230.946 287.27 218.455 296 206.606 296ZM221.81 247.055C230.089 247.055 241.367 237.967 255.643 219.792L278.341 188.45C277.485 186.446 275.7 185.444 272.988 185.444C264.137 185.444 252.288 192.457 237.441 206.482C222.024 221.08 215.1 232.887 216.67 241.903C217.384 245.337 219.097 247.055 221.81 247.055ZM342.82 252.422C338.966 252.422 336.253 251.348 334.683 249.202C333.113 246.912 332.328 244.121 332.328 240.829C332.328 232.529 335.183 223.656 340.893 214.21L354.598 191.884C344.89 199.04 335.254 207.985 325.689 218.718C323.12 221.58 320.193 224.944 316.91 228.808C313.769 232.672 310.272 237.108 306.417 242.117C301.278 248.844 298.209 252.207 297.21 252.207C295.211 252.207 293.569 251.348 292.284 249.631C291 247.77 290.357 246.125 290.357 244.693C290.357 243.549 290.714 241.473 291.428 238.468C292.142 235.319 292.998 232.6 293.998 230.31C294.997 227.878 295.996 225.516 296.995 223.226C298.138 220.793 299.208 218.432 300.207 216.142L287.359 229.666C287.074 229.953 286.217 230.811 284.79 232.243C283.362 233.674 282.22 234.389 281.364 234.389C280.65 234.389 280.293 233.888 280.293 232.887C280.293 232.6 280.436 232.243 280.721 231.813C280.864 231.241 281.292 230.597 282.006 229.881C284.147 227.734 286.36 225.445 288.644 223.012C290.928 220.579 293.284 217.788 295.711 214.639C296.995 213.065 298.923 210.704 301.492 207.555C304.062 204.264 306.846 200.757 309.844 197.036C312.984 193.315 315.911 189.881 318.623 186.732C319.337 185.73 320.122 185.086 320.979 184.8C321.835 184.371 322.406 184.156 322.692 184.156C326.546 184.156 328.473 185.659 328.473 188.664C328.473 189.523 328.259 190.382 327.831 191.24C314.983 208.986 307.274 222.511 304.704 231.813C321.264 215.212 334.54 202.761 344.533 194.46C354.669 186.017 361.878 181.795 366.161 181.795C368.445 181.795 370.158 182.152 371.3 182.868C372.585 183.584 373.227 184.943 373.227 186.947C373.227 187.662 373.156 188.235 373.013 188.664C372.585 189.666 369.659 193.673 364.234 200.686C360.95 204.693 358.024 208.342 355.454 211.634C353.027 214.926 351.029 217.788 349.458 220.221C346.889 224.228 344.962 228.021 343.677 231.599C342.392 235.033 341.75 237.967 341.75 240.4C341.75 241.402 341.892 242.618 342.178 244.049C342.463 245.481 343.32 246.196 344.748 246.196C348.031 246.196 353.17 243.334 360.165 237.609C363.449 234.747 366.518 231.885 369.373 229.022C372.228 226.017 374.941 223.083 377.51 220.221C378.081 219.648 379.009 218.575 380.294 217.001C381.579 215.283 382.364 214.425 382.649 214.425C383.22 214.425 383.506 214.997 383.506 216.142C383.506 216.715 383.149 217.716 382.435 219.148C381.864 220.436 381.222 221.437 380.508 222.153C378.938 224.013 376.582 226.59 373.442 229.881C370.444 233.173 367.018 236.536 363.163 239.971C359.451 243.405 355.811 246.339 352.242 248.772C348.673 251.205 345.533 252.422 342.82 252.422ZM421.905 178.145C419.478 178.145 417.337 177.358 415.481 175.784C413.768 174.21 412.911 172.421 412.911 170.417C412.911 166.41 415.624 164.406 421.048 164.406C423.047 164.406 425.046 165.122 427.044 166.553C429.043 167.841 430.042 169.487 430.042 171.49C430.042 173.208 429.114 174.782 427.258 176.213C425.403 177.501 423.618 178.145 421.905 178.145ZM382.29 254.354C379.149 254.354 376.58 253.352 374.581 251.348C372.44 249.202 371.369 245.481 371.369 240.185C371.369 237.18 372.083 233.745 373.51 229.881C374.795 225.874 376.437 221.867 378.436 217.86C380.577 213.852 382.647 210.274 384.645 207.126C392.64 194.103 399.207 187.519 404.346 187.376C405.631 187.376 407.201 187.949 409.057 189.094C410.913 190.095 411.841 191.24 411.841 192.528C411.841 192.528 406.416 199.541 395.566 213.566C384.86 227.448 379.506 237.323 379.506 243.191C379.506 247.77 381.291 250.06 384.86 250.06C387.144 250.06 390.07 249.13 393.639 247.27C397.351 245.266 401.205 242.761 405.202 239.756C409.2 236.751 412.983 233.531 416.552 230.096C420.263 226.661 423.261 223.513 425.545 220.65C426.973 218.79 428.186 217.502 429.186 216.786C430.328 216.071 431.041 215.713 431.327 215.713C431.898 215.713 432.183 216.142 432.183 217.001C432.183 217.716 431.327 219.148 429.614 221.294C428.044 223.441 425.831 225.945 422.976 228.808C419.549 232.243 415.766 235.964 411.627 239.971C407.487 243.978 402.99 247.413 398.136 250.275C393.282 252.994 388 254.354 382.29 254.354ZM436.163 253.28C431.595 253.28 427.955 252.207 425.243 250.06C422.673 247.77 421.388 243.763 421.388 238.039C421.388 234.747 422.387 230.597 424.386 225.588C426.385 220.436 428.883 214.926 431.881 209.058C434.879 203.19 437.876 197.394 440.874 191.67C439.019 192.099 437.377 192.314 435.949 192.314C431.667 192.314 429.525 190.668 429.525 187.376C429.525 185.802 430.096 184.585 431.238 183.727C432.523 182.868 433.665 182.367 434.664 182.224C434.664 182.224 434.807 182.224 435.093 182.224C435.521 182.224 436.021 182.153 436.592 182.009H449.011C451.581 178.718 454.222 175.211 456.934 171.49C460.789 166.625 463.858 163.762 466.142 162.904H466.785C467.784 162.904 469.212 163.405 471.067 164.406C473.351 165.694 474.494 166.982 474.494 168.27C474.494 170.131 471.067 174.925 464.215 182.653C465.5 182.797 467.356 182.868 469.783 182.868C472.209 182.868 475.207 182.868 478.776 182.868C480.489 182.868 482.916 182.868 486.057 182.868C489.34 182.868 492.695 182.868 496.121 182.868C499.69 182.725 502.759 182.653 505.329 182.653C507.899 182.51 509.326 182.439 509.612 182.439C510.04 182.582 510.254 182.797 510.254 183.083C510.254 184.371 501.831 186.088 484.986 188.235C475.421 189.523 468.069 190.525 462.93 191.24C457.934 191.956 455.221 192.385 454.793 192.528C452.795 194.246 450.368 197.18 447.513 201.33C444.657 205.48 441.802 210.131 438.947 215.283C436.092 220.436 433.665 225.373 431.667 230.096C429.811 234.675 428.883 238.253 428.883 240.829C428.883 243.119 429.739 245.051 431.452 246.625C433.165 248.057 435.949 248.772 439.804 248.772C442.373 248.772 445.443 248.2 449.011 247.055C452.58 245.91 455.935 244.622 459.076 243.191C462.359 241.617 464.715 240.4 466.142 239.541C469.854 237.252 473.923 234.246 478.348 230.525C482.916 226.661 487.413 222.296 491.838 217.43C493.837 215.427 495.193 214.425 495.907 214.425C496.335 214.425 496.549 214.711 496.549 215.283C496.549 216.428 495.479 218.289 493.337 220.865C489.911 225.015 486.057 229.022 481.774 232.887C477.634 236.608 472.995 240.042 467.855 243.191C462.002 246.769 456.363 249.345 450.939 250.919C445.657 252.493 440.732 253.28 436.163 253.28ZM533.782 178.145C531.355 178.145 529.214 177.358 527.358 175.784C525.645 174.21 524.788 172.421 524.788 170.417C524.788 166.41 527.501 164.406 532.925 164.406C534.924 164.406 536.922 165.122 538.921 166.553C540.92 167.841 541.919 169.487 541.919 171.49C541.919 173.208 540.991 174.782 539.135 176.213C537.279 177.501 535.495 178.145 533.782 178.145ZM494.167 254.354C491.026 254.354 488.457 253.352 486.458 251.348C484.317 249.202 483.246 245.481 483.246 240.185C483.246 237.18 483.96 233.745 485.387 229.881C486.672 225.874 488.314 221.867 490.312 217.86C492.454 213.852 494.524 210.274 496.522 207.126C504.517 194.103 511.084 187.519 516.223 187.376C517.508 187.376 519.078 187.949 520.934 189.094C522.79 190.095 523.717 191.24 523.717 192.528C523.717 192.528 518.293 199.541 507.443 213.566C496.736 227.448 491.383 237.323 491.383 243.191C491.383 247.77 493.168 250.06 496.736 250.06C499.021 250.06 501.947 249.13 505.516 247.27C509.228 245.266 513.082 242.761 517.079 239.756C521.076 236.751 524.86 233.531 528.428 230.096C532.14 226.661 535.138 223.513 537.422 220.65C538.85 218.79 540.063 217.502 541.062 216.786C542.204 216.071 542.918 215.713 543.204 215.713C543.775 215.713 544.06 216.142 544.06 217.001C544.06 217.716 543.204 219.148 541.491 221.294C539.92 223.441 537.708 225.945 534.853 228.808C531.426 232.243 527.643 235.964 523.503 239.971C519.363 243.978 514.867 247.413 510.013 250.275C505.159 252.994 499.877 254.354 494.167 254.354ZM551.038 254.783C546.47 254.783 542.33 253.352 538.618 250.49C534.907 247.484 533.051 243.549 533.051 238.683C533.051 228.522 539.261 216.929 551.681 203.906C564.386 190.739 575.735 184.156 585.728 184.156C589.154 184.156 591.866 185.086 593.865 186.947C595.864 188.664 596.863 190.811 596.863 193.387C596.863 196.965 596.006 200.256 594.293 203.262C592.295 206.983 589.44 208.843 585.728 208.843C582.016 208.843 580.16 207.698 580.16 205.409C580.16 203.834 581.088 201.473 582.944 198.324C584.943 195.033 585.942 193.315 585.942 193.172C585.942 192.886 585.728 192.743 585.3 192.743C581.303 193.172 575.735 196.106 568.597 201.544C565.457 203.977 562.673 206.267 560.246 208.414C557.962 210.561 556.106 212.636 554.678 214.639L546.327 226.876C545.471 228.164 544.543 230.382 543.543 233.531C542.687 236.679 542.259 239.04 542.259 240.615C542.259 243.477 543.187 245.838 545.042 247.699C547.041 249.559 549.539 250.49 552.537 250.49C559.675 250.49 569.097 245.838 580.803 236.536C590.225 229.094 597.791 221.58 603.501 213.995C604.215 213.137 605.071 212.707 606.071 212.707C607.07 212.707 607.57 212.994 607.57 213.566C607.57 213.995 607.213 214.711 606.499 215.713C598.647 226.16 589.44 235.176 578.876 242.761C567.598 250.776 558.319 254.783 551.038 254.783ZM642.73 178.145C640.303 178.145 638.161 177.358 636.306 175.784C634.593 174.21 633.736 172.421 633.736 170.417C633.736 166.41 636.448 164.406 641.873 164.406C643.872 164.406 645.87 165.122 647.869 166.553C649.868 167.841 650.867 169.487 650.867 171.49C650.867 173.208 649.939 174.782 648.083 176.213C646.227 177.501 644.443 178.145 642.73 178.145ZM603.115 254.354C599.974 254.354 597.404 253.352 595.406 251.348C593.265 249.202 592.194 245.481 592.194 240.185C592.194 237.18 592.908 233.745 594.335 229.881C595.62 225.874 597.262 221.867 599.26 217.86C601.402 213.852 603.472 210.274 605.47 207.126C613.465 194.103 620.031 187.519 625.171 187.376C626.455 187.376 628.026 187.949 629.882 189.094C631.737 190.095 632.665 191.24 632.665 192.528C632.665 192.528 627.241 199.541 616.391 213.566C605.684 227.448 600.331 237.323 600.331 243.191C600.331 247.77 602.115 250.06 605.684 250.06C607.968 250.06 610.895 249.13 614.464 247.27C618.176 245.266 622.03 242.761 626.027 239.756C630.024 236.751 633.807 233.531 637.376 230.096C641.088 226.661 644.086 223.513 646.37 220.65C647.798 218.79 649.011 217.502 650.01 216.786C651.152 216.071 651.866 215.713 652.152 215.713C652.723 215.713 653.008 216.142 653.008 217.001C653.008 217.716 652.152 219.148 650.439 221.294C648.868 223.441 646.656 225.945 643.8 228.808C640.374 232.243 636.591 235.964 632.451 239.971C628.311 243.978 623.814 247.413 618.961 250.275C614.107 252.994 608.825 254.354 603.115 254.354ZM654.633 254.783C650.064 254.783 645.924 253.352 642.213 250.49C638.501 247.484 636.645 243.549 636.645 238.683C636.645 228.522 642.855 216.929 655.275 203.906C667.98 190.739 679.33 184.156 689.323 184.156C692.606 184.156 695.247 185.086 697.245 186.947C699.387 188.664 700.457 190.811 700.457 193.387C700.457 201.401 694.105 209.273 681.4 217.001C670.122 223.87 660.628 227.305 652.92 227.305C651.778 227.305 650.778 227.162 649.922 226.876C647.78 230.74 646.71 234.819 646.71 239.112C646.71 246.554 650.207 250.275 657.202 250.275C664.34 250.275 673.548 245.481 684.826 235.892C693.534 228.879 700.957 221.437 707.096 213.566C708.38 211.849 709.522 210.99 710.522 210.99C711.378 210.99 711.807 211.419 711.807 212.278C711.807 213.137 711.236 214.353 710.094 215.927C706.096 221.223 701.814 226.089 697.245 230.525C692.677 234.962 687.752 239.04 682.47 242.761C671.478 250.776 662.199 254.783 654.633 254.783ZM655.917 222.582C661.342 222.582 668.409 219.863 677.117 214.425C679.972 212.421 682.756 210.203 685.468 207.77C688.323 205.194 690.607 202.618 692.32 200.042C694.176 197.466 695.104 195.176 695.104 193.172C695.104 191.312 693.605 190.382 690.607 190.382C686.325 190.382 680.329 193.602 672.62 200.042C668.908 203.19 665.339 206.625 661.913 210.346C658.487 214.067 655.561 218.003 653.134 222.153C653.99 222.439 654.918 222.582 655.917 222.582ZM753.314 252.422C749.46 252.422 746.748 251.348 745.177 249.202C743.607 246.912 742.822 244.121 742.822 240.829C742.822 232.529 745.677 223.656 751.387 214.21L765.092 191.884C755.384 199.04 745.748 207.985 736.184 218.718C733.614 221.58 730.687 224.944 727.404 228.808C724.263 232.672 720.766 237.108 716.911 242.117C711.772 248.844 708.703 252.207 707.704 252.207C705.705 252.207 704.063 251.348 702.778 249.631C701.494 247.77 700.851 246.125 700.851 244.693C700.851 243.549 701.208 241.473 701.922 238.468C702.636 235.319 703.492 232.6 704.492 230.31C705.491 227.878 706.49 225.516 707.489 223.226C708.632 220.793 709.702 218.432 710.702 216.142L697.853 229.666C697.568 229.953 696.711 230.811 695.284 232.243C693.856 233.674 692.714 234.389 691.858 234.389C691.144 234.389 690.787 233.888 690.787 232.887C690.787 232.6 690.93 232.243 691.215 231.813C691.358 231.241 691.786 230.597 692.5 229.881C694.641 227.734 696.854 225.445 699.138 223.012C701.422 220.579 703.778 217.788 706.205 214.639C707.489 213.065 709.417 210.704 711.986 207.555C714.556 204.264 717.34 200.757 720.338 197.036C723.478 193.315 726.405 189.881 729.117 186.732C729.831 185.73 730.616 185.086 731.473 184.8C732.329 184.371 732.9 184.156 733.186 184.156C737.04 184.156 738.967 185.659 738.967 188.664C738.967 189.523 738.753 190.382 738.325 191.24C725.477 208.986 717.768 222.511 715.198 231.813C731.758 215.212 745.034 202.761 755.027 194.46C765.163 186.017 772.372 181.795 776.655 181.795C778.939 181.795 780.652 182.152 781.794 182.868C783.079 183.584 783.722 184.943 783.722 186.947C783.722 187.662 783.65 188.235 783.507 188.664C783.079 189.666 780.153 193.673 774.728 200.686C771.444 204.693 768.518 208.342 765.948 211.634C763.521 214.926 761.523 217.788 759.953 220.221C757.383 224.228 755.456 228.021 754.171 231.599C752.886 235.033 752.244 237.967 752.244 240.4C752.244 241.402 752.386 242.618 752.672 244.049C752.957 245.481 753.814 246.196 755.242 246.196C758.525 246.196 763.664 243.334 770.659 237.609C773.943 234.747 777.012 231.885 779.867 229.022C782.722 226.017 785.435 223.083 788.004 220.221C788.575 219.648 789.503 218.575 790.788 217.001C792.073 215.283 792.858 214.425 793.143 214.425C793.714 214.425 794 214.997 794 216.142C794 216.715 793.643 217.716 792.929 219.148C792.358 220.436 791.716 221.437 791.002 222.153C789.432 224.013 787.076 226.59 783.936 229.881C780.938 233.173 777.512 236.536 773.657 239.971C769.945 243.405 766.305 246.339 762.736 248.772C759.167 251.205 756.027 252.422 753.314 252.422Z" fill="url(#paint0_linear_87_32)"/>
<defs>
<linearGradient id="paint0_linear_87_32" x1="397" y1="112.456" x2="397" y2="296" gradientUnits="userSpaceOnUse">
<stop stop-color="#F2A616"/>
<stop offset="1" stop-color="#FEE301"/>
</linearGradient>
</defs>
</svg>
