<svg width="300" height="290" viewBox="0 0 300 290" fill="none" xmlns="http://www.w3.org/2000/svg">
<mask id="path-1-outside-1_159_71" maskUnits="userSpaceOnUse" x="0" y="0" width="300" height="290" fill="black">
<rect fill="white" width="300" height="290"/>
<path d="M3 3H297V287H3V3Z"/>
<path d="M149.5 232.708C159.816 232.708 168.188 241.08 168.188 251.396C168.188 261.711 159.816 270.083 149.5 270.083C139.184 270.083 130.812 261.711 130.812 251.396C130.812 241.08 139.184 232.708 149.5 232.708ZM149.5 20.9166C190.787 20.9166 224.25 54.3797 224.25 95.6666C224.25 122.639 214.869 136.655 190.936 156.999C166.929 177.393 161.958 186.575 161.958 207.792H137.042C137.042 176.97 146.846 161.758 174.803 138.013C193.702 121.954 199.333 113.532 199.333 95.6666C199.333 68.1337 177.033 45.8333 149.5 45.8333C121.967 45.8333 99.6667 68.1337 99.6667 95.6666V108.125H74.75V95.6666C74.75 54.3797 108.213 20.9166 149.5 20.9166Z"/>
<path d="M74.96 176.792L66.8 179C56.048 179 48.816 176.248 45.104 170.744C43.184 167.992 41.84 164.92 41.072 161.528C40.304 158.072 39.92 153.912 39.92 149.048C39.92 138.104 41.968 130.136 46.064 125.144C50.16 120.088 57.52 117.56 68.144 117.56C78.768 117.56 86.16 120.088 90.32 125.144C94.48 130.2 96.56 138.168 96.56 149.048C96.56 157.176 94.864 163.736 91.472 168.728L98.384 172.76L93.392 183.8L74.96 180.44V176.792ZM60.56 164.024H68.528C71.152 164.024 73.04 163.736 74.192 163.16C75.408 162.52 76.016 161.112 76.016 158.936V133.976H67.952C65.392 133.976 63.504 134.296 62.288 134.936C61.136 135.512 60.56 136.888 60.56 139.064V164.024Z"/>
<path d="M134.949 164.504H122.469V179H103.269V119H133.509C147.269 119 154.149 126.392 154.149 141.176C154.149 149.304 152.357 155.32 148.773 159.224C147.429 160.696 145.573 161.944 143.205 162.968C140.837 163.992 138.085 164.504 134.949 164.504ZM122.469 134.36V149.144H126.885C129.189 149.144 130.853 148.92 131.877 148.472C132.965 147.96 133.509 146.84 133.509 145.112V138.392C133.509 136.664 132.965 135.576 131.877 135.128C130.853 134.616 129.189 134.36 126.885 134.36H122.469Z"/>
<path d="M177.654 119V164.024H184.47C186.902 164.024 188.566 163.736 189.462 163.16C190.358 162.52 190.806 161.112 190.806 158.936V119H210.006V152.696C210.006 158.136 209.654 162.52 208.95 165.848C208.246 169.176 206.934 171.992 205.014 174.296C203.094 176.6 200.47 178.2 197.142 179.096C193.814 179.992 189.494 180.44 184.182 180.44C178.87 180.44 174.55 179.992 171.222 179.096C167.958 178.2 165.366 176.6 163.446 174.296C161.526 171.992 160.214 169.176 159.51 165.848C158.806 162.52 158.454 158.136 158.454 152.696V119H177.654Z"/>
<path d="M258.046 161.816L259.486 177.944C255.454 179.608 250.398 180.44 244.318 180.44C238.238 180.44 233.342 179.8 229.63 178.52C225.982 177.24 223.102 175.224 220.99 172.472C218.878 169.72 217.406 166.488 216.574 162.776C215.742 159.064 215.326 154.488 215.326 149.048C215.326 143.608 215.742 139.032 216.574 135.32C217.406 131.544 218.878 128.28 220.99 125.528C225.086 120.216 232.606 117.56 243.55 117.56C245.982 117.56 248.83 117.816 252.094 118.328C255.422 118.776 257.886 119.352 259.486 120.056L256.606 134.744C252.446 133.848 248.638 133.4 245.182 133.4C241.726 133.4 239.326 133.72 237.982 134.36C236.638 135 235.966 136.28 235.966 138.2V163.352C238.462 163.864 240.99 164.12 243.55 164.12C248.99 164.12 253.822 163.352 258.046 161.816Z"/>
</mask>
<path d="M3 3H297V287H3V3Z" fill="url(#paint0_linear_159_71)"/>
<path d="M149.5 232.708C159.816 232.708 168.188 241.08 168.188 251.396C168.188 261.711 159.816 270.083 149.5 270.083C139.184 270.083 130.812 261.711 130.812 251.396C130.812 241.08 139.184 232.708 149.5 232.708ZM149.5 20.9166C190.787 20.9166 224.25 54.3797 224.25 95.6666C224.25 122.639 214.869 136.655 190.936 156.999C166.929 177.393 161.958 186.575 161.958 207.792H137.042C137.042 176.97 146.846 161.758 174.803 138.013C193.702 121.954 199.333 113.532 199.333 95.6666C199.333 68.1337 177.033 45.8333 149.5 45.8333C121.967 45.8333 99.6667 68.1337 99.6667 95.6666V108.125H74.75V95.6666C74.75 54.3797 108.213 20.9166 149.5 20.9166Z" fill="url(#paint1_linear_159_71)"/>
<path d="M74.96 176.792L66.8 179C56.048 179 48.816 176.248 45.104 170.744C43.184 167.992 41.84 164.92 41.072 161.528C40.304 158.072 39.92 153.912 39.92 149.048C39.92 138.104 41.968 130.136 46.064 125.144C50.16 120.088 57.52 117.56 68.144 117.56C78.768 117.56 86.16 120.088 90.32 125.144C94.48 130.2 96.56 138.168 96.56 149.048C96.56 157.176 94.864 163.736 91.472 168.728L98.384 172.76L93.392 183.8L74.96 180.44V176.792ZM60.56 164.024H68.528C71.152 164.024 73.04 163.736 74.192 163.16C75.408 162.52 76.016 161.112 76.016 158.936V133.976H67.952C65.392 133.976 63.504 134.296 62.288 134.936C61.136 135.512 60.56 136.888 60.56 139.064V164.024Z" fill="white"/>
<path d="M134.949 164.504H122.469V179H103.269V119H133.509C147.269 119 154.149 126.392 154.149 141.176C154.149 149.304 152.357 155.32 148.773 159.224C147.429 160.696 145.573 161.944 143.205 162.968C140.837 163.992 138.085 164.504 134.949 164.504ZM122.469 134.36V149.144H126.885C129.189 149.144 130.853 148.92 131.877 148.472C132.965 147.96 133.509 146.84 133.509 145.112V138.392C133.509 136.664 132.965 135.576 131.877 135.128C130.853 134.616 129.189 134.36 126.885 134.36H122.469Z" fill="white"/>
<path d="M177.654 119V164.024H184.47C186.902 164.024 188.566 163.736 189.462 163.16C190.358 162.52 190.806 161.112 190.806 158.936V119H210.006V152.696C210.006 158.136 209.654 162.52 208.95 165.848C208.246 169.176 206.934 171.992 205.014 174.296C203.094 176.6 200.47 178.2 197.142 179.096C193.814 179.992 189.494 180.44 184.182 180.44C178.87 180.44 174.55 179.992 171.222 179.096C167.958 178.2 165.366 176.6 163.446 174.296C161.526 171.992 160.214 169.176 159.51 165.848C158.806 162.52 158.454 158.136 158.454 152.696V119H177.654Z" fill="white"/>
<path d="M258.046 161.816L259.486 177.944C255.454 179.608 250.398 180.44 244.318 180.44C238.238 180.44 233.342 179.8 229.63 178.52C225.982 177.24 223.102 175.224 220.99 172.472C218.878 169.72 217.406 166.488 216.574 162.776C215.742 159.064 215.326 154.488 215.326 149.048C215.326 143.608 215.742 139.032 216.574 135.32C217.406 131.544 218.878 128.28 220.99 125.528C225.086 120.216 232.606 117.56 243.55 117.56C245.982 117.56 248.83 117.816 252.094 118.328C255.422 118.776 257.886 119.352 259.486 120.056L256.606 134.744C252.446 133.848 248.638 133.4 245.182 133.4C241.726 133.4 239.326 133.72 237.982 134.36C236.638 135 235.966 136.28 235.966 138.2V163.352C238.462 163.864 240.99 164.12 243.55 164.12C248.99 164.12 253.822 163.352 258.046 161.816Z" fill="white"/>
<path d="M3 3V0H0V3H3ZM297 3H300V0H297V3ZM297 287V290H300V287H297ZM3 287H0V290H3V287ZM190.936 156.999L192.879 159.285L192.879 159.285L190.936 156.999ZM161.958 207.792V210.792H164.958V207.792H161.958ZM137.042 207.792H134.042V210.792H137.042V207.792ZM174.803 138.013L176.745 140.299L176.745 140.299L174.803 138.013ZM99.6667 108.125V111.125H102.667V108.125H99.6667ZM74.75 108.125H71.75V111.125H74.75V108.125ZM74.96 176.792H77.96V172.872L74.1764 173.896L74.96 176.792ZM66.8 179V182H67.1987L67.5836 181.896L66.8 179ZM45.104 170.744L47.5912 169.067L47.578 169.047L47.5644 169.027L45.104 170.744ZM41.072 161.528L38.1434 162.179L38.1461 162.19L41.072 161.528ZM46.064 125.144L48.3832 127.047L48.3892 127.04L48.395 127.032L46.064 125.144ZM90.32 125.144L92.6366 123.238L92.6366 123.238L90.32 125.144ZM91.472 168.728L88.9906 167.042L87.1845 169.7L89.9604 171.319L91.472 168.728ZM98.384 172.76L101.118 173.996L102.232 171.532L99.8956 170.169L98.384 172.76ZM93.392 183.8L92.854 186.751L95.1598 187.172L96.1255 185.036L93.392 183.8ZM74.96 180.44H71.96V182.943L74.422 183.391L74.96 180.44ZM60.56 164.024H57.56V167.024H60.56V164.024ZM74.192 163.16L75.5336 165.843L75.5616 165.829L75.5892 165.815L74.192 163.16ZM76.016 133.976H79.016V130.976H76.016V133.976ZM62.288 134.936L63.6296 137.619L63.6576 137.605L63.6852 137.591L62.288 134.936ZM122.469 164.504V161.504H119.469V164.504H122.469ZM122.469 179V182H125.469V179H122.469ZM103.269 179H100.269V182H103.269V179ZM103.269 119V116H100.269V119H103.269ZM148.773 159.224L146.563 157.195L146.557 157.201L148.773 159.224ZM122.469 134.36V131.36H119.469V134.36H122.469ZM122.469 149.144H119.469V152.144H122.469V149.144ZM131.877 148.472L133.079 151.22L133.117 151.204L133.154 151.186L131.877 148.472ZM131.877 135.128L130.535 137.811L130.633 137.86L130.735 137.902L131.877 135.128ZM177.654 119H180.654V116H177.654V119ZM177.654 164.024H174.654V167.024H177.654V164.024ZM189.462 163.16L191.084 165.684L191.146 165.644L191.205 165.601L189.462 163.16ZM190.806 119V116H187.806V119H190.806ZM210.006 119H213.006V116H210.006V119ZM208.95 165.848L211.885 166.469L211.885 166.469L208.95 165.848ZM205.014 174.296L207.318 176.217L207.318 176.217L205.014 174.296ZM197.142 179.096L197.922 181.993L197.922 181.993L197.142 179.096ZM171.222 179.096L170.428 181.989L170.435 181.991L170.442 181.993L171.222 179.096ZM163.446 174.296L165.75 172.375L165.75 172.375L163.446 174.296ZM159.51 165.848L162.445 165.227L162.445 165.227L159.51 165.848ZM158.454 119V116H155.454V119H158.454ZM258.046 161.816L261.034 161.549L260.687 157.663L257.021 158.997L258.046 161.816ZM259.486 177.944L260.631 180.717L262.671 179.875L262.474 177.677L259.486 177.944ZM229.63 178.52L228.637 181.351L228.645 181.353L228.652 181.356L229.63 178.52ZM216.574 162.776L213.647 163.432L213.647 163.432L216.574 162.776ZM216.574 135.32L219.502 135.976L219.504 135.966L216.574 135.32ZM220.99 125.528L218.615 123.696L218.61 123.702L220.99 125.528ZM252.094 118.328L251.629 121.292L251.662 121.297L251.694 121.301L252.094 118.328ZM259.486 120.056L262.43 120.633L262.892 118.277L260.694 117.31L259.486 120.056ZM256.606 134.744L255.975 137.677L258.962 138.32L259.55 135.321L256.606 134.744ZM237.982 134.36L236.692 131.651L236.692 131.651L237.982 134.36ZM235.966 163.352H232.966V165.799L235.363 166.291L235.966 163.352ZM3 6H297V0H3V6ZM294 3V287H300V3H294ZM297 284H3V290H297V284ZM6 287V3H0V287H6ZM149.5 235.708C158.159 235.708 165.188 242.737 165.188 251.396H171.188C171.188 239.423 161.472 229.708 149.5 229.708V235.708ZM165.188 251.396C165.188 260.054 158.159 267.083 149.5 267.083V273.083C161.472 273.083 171.188 263.368 171.188 251.396H165.188ZM149.5 267.083C140.841 267.083 133.812 260.054 133.812 251.396H127.812C127.812 263.368 137.528 273.083 149.5 273.083V267.083ZM133.812 251.396C133.812 242.737 140.841 235.708 149.5 235.708V229.708C137.528 229.708 127.812 239.423 127.812 251.396H133.812ZM149.5 23.9166C189.13 23.9166 221.25 56.0366 221.25 95.6666H227.25C227.25 52.7229 192.444 17.9166 149.5 17.9166V23.9166ZM221.25 95.6666C221.25 108.769 218.98 118.476 213.958 127.339C208.887 136.288 200.887 144.602 188.993 154.713L192.879 159.285C204.918 149.051 213.575 140.185 219.178 130.297C224.829 120.324 227.25 109.537 227.25 95.6666H221.25ZM188.994 154.713C176.968 164.929 169.36 172.614 164.834 180.609C160.23 188.743 158.958 196.933 158.958 207.792H164.958C164.958 197.434 166.172 190.425 170.055 183.565C174.017 176.567 180.897 169.464 192.879 159.285L188.994 154.713ZM161.958 204.792H137.042V210.792H161.958V204.792ZM140.042 207.792C140.042 192.728 142.431 181.764 148.056 171.714C153.732 161.573 162.832 152.117 176.745 140.299L172.861 135.726C158.817 147.654 149.037 157.676 142.821 168.783C136.554 179.98 134.042 192.034 134.042 207.792H140.042ZM176.745 140.299C186.219 132.249 192.69 125.857 196.734 119.049C200.859 112.106 202.333 104.959 202.333 95.6666H196.333C196.333 104.24 194.992 110.236 191.576 115.985C188.08 121.869 182.287 127.717 172.86 135.726L176.745 140.299ZM202.333 95.6666C202.333 66.4769 178.69 42.8333 149.5 42.8333V48.8333C175.376 48.8333 196.333 69.7906 196.333 95.6666H202.333ZM149.5 42.8333C120.31 42.8333 96.6667 66.4769 96.6667 95.6666H102.667C102.667 69.7906 123.624 48.8333 149.5 48.8333V42.8333ZM96.6667 95.6666V108.125H102.667V95.6666H96.6667ZM99.6667 105.125H74.75V111.125H99.6667V105.125ZM77.75 108.125V95.6666H71.75V108.125H77.75ZM77.75 95.6666C77.75 56.0366 109.87 23.9166 149.5 23.9166V17.9166C106.556 17.9166 71.75 52.7229 71.75 95.6666H77.75ZM74.1764 173.896L66.0164 176.104L67.5836 181.896L75.7436 179.688L74.1764 173.896ZM66.8 176C56.4135 176 50.4667 173.33 47.5912 169.067L42.6168 172.421C47.1653 179.166 55.6825 182 66.8 182V176ZM47.5644 169.027C45.8743 166.605 44.6835 163.893 43.9979 160.866L38.1461 162.19C38.9965 165.947 40.4937 169.379 42.6436 172.461L47.5644 169.027ZM44.0006 160.877C43.2939 157.697 42.92 153.768 42.92 149.048H36.92C36.92 154.056 37.3141 158.447 38.1434 162.179L44.0006 160.877ZM42.92 149.048C42.92 138.358 44.9431 131.24 48.3832 127.047L43.7448 123.241C38.9929 129.032 36.92 137.85 36.92 149.048H42.92ZM48.395 127.032C51.6419 123.025 57.8599 120.56 68.144 120.56V114.56C57.1801 114.56 48.6781 117.151 43.733 123.256L48.395 127.032ZM68.144 120.56C78.4222 120.56 84.6893 123.022 88.0034 127.05L92.6366 123.238C87.6307 117.154 79.1138 114.56 68.144 114.56V120.56ZM88.0034 127.05C91.5116 131.314 93.56 138.439 93.56 149.048H99.56C99.56 137.897 97.4484 129.086 92.6366 123.238L88.0034 127.05ZM93.56 149.048C93.56 156.779 91.9458 162.693 88.9906 167.042L93.9534 170.414C97.7822 164.779 99.56 157.573 99.56 149.048H93.56ZM89.9604 171.319L96.8724 175.351L99.8956 170.169L92.9836 166.137L89.9604 171.319ZM95.6505 171.524L90.6585 182.564L96.1255 185.036L101.118 173.996L95.6505 171.524ZM93.93 180.849L75.498 177.489L74.422 183.391L92.854 186.751L93.93 180.849ZM77.96 180.44V176.792H71.96V180.44H77.96ZM60.56 167.024H68.528V161.024H60.56V167.024ZM68.528 167.024C71.2311 167.024 73.72 166.75 75.5336 165.843L72.8504 160.477C72.36 160.722 71.0729 161.024 68.528 161.024V167.024ZM75.5892 165.815C78.2868 164.395 79.016 161.524 79.016 158.936H73.016C73.016 159.774 72.8948 160.229 72.8058 160.435C72.74 160.587 72.7257 160.542 72.7948 160.505L75.5892 165.815ZM79.016 158.936V133.976H73.016V158.936H79.016ZM76.016 130.976H67.952V136.976H76.016V130.976ZM67.952 130.976C65.2572 130.976 62.7676 131.293 60.8908 132.281L63.6852 137.591C64.2404 137.299 65.5268 136.976 67.952 136.976V130.976ZM60.9464 132.253C58.2037 133.624 57.56 136.581 57.56 139.064H63.56C63.56 138.207 63.6784 137.752 63.7593 137.558C63.7944 137.475 63.8092 137.472 63.7783 137.507C63.7431 137.546 63.6891 137.59 63.6296 137.619L60.9464 132.253ZM57.56 139.064V164.024H63.56V139.064H57.56ZM134.949 161.504H122.469V167.504H134.949V161.504ZM119.469 164.504V179H125.469V164.504H119.469ZM122.469 176H103.269V182H122.469V176ZM106.269 179V119H100.269V179H106.269ZM103.269 122H133.509V116H103.269V122ZM133.509 122C139.869 122 144.103 123.698 146.793 126.588C149.52 129.518 151.149 134.195 151.149 141.176H157.149C157.149 133.373 155.337 126.962 151.185 122.5C146.994 117.998 140.909 116 133.509 116V122ZM151.149 141.176C151.149 148.94 149.426 154.076 146.563 157.195L150.983 161.253C155.287 156.564 157.149 149.668 157.149 141.176H151.149ZM146.557 157.201C145.57 158.282 144.103 159.311 142.014 160.214L144.395 165.722C147.043 164.577 149.287 163.11 150.988 161.247L146.557 157.201ZM142.014 160.214C140.094 161.045 137.761 161.504 134.949 161.504V167.504C138.408 167.504 141.58 166.939 144.395 165.722L142.014 160.214ZM119.469 134.36V149.144H125.469V134.36H119.469ZM122.469 152.144H126.885V146.144H122.469V152.144ZM126.885 152.144C129.256 152.144 131.452 151.932 133.079 151.22L130.674 145.724C130.253 145.908 129.122 146.144 126.885 146.144V152.144ZM133.154 151.186C135.735 149.972 136.509 147.418 136.509 145.112H130.509C130.509 145.688 130.414 145.912 130.402 145.937C130.401 145.941 130.419 145.903 130.469 145.853C130.521 145.802 130.571 145.771 130.599 145.758L133.154 151.186ZM136.509 145.112V138.392H130.509V145.112H136.509ZM136.509 138.392C136.509 136.113 135.739 133.474 133.019 132.354L130.735 137.902C130.686 137.882 130.61 137.839 130.535 137.769C130.46 137.699 130.426 137.638 130.417 137.622C130.412 137.61 130.436 137.655 130.461 137.785C130.487 137.916 130.509 138.114 130.509 138.392H136.509ZM133.218 132.445C131.536 131.603 129.275 131.36 126.885 131.36V137.36C129.103 137.36 130.17 137.629 130.535 137.811L133.218 132.445ZM126.885 131.36H122.469V137.36H126.885V131.36ZM174.654 119V164.024H180.654V119H174.654ZM177.654 167.024H184.47V161.024H177.654V167.024ZM184.47 167.024C185.789 167.024 186.997 166.947 188.053 166.764C189.076 166.587 190.159 166.278 191.084 165.684L187.839 160.636C187.869 160.618 187.672 160.741 187.03 160.852C186.423 160.957 185.582 161.024 184.47 161.024V167.024ZM191.205 165.601C193.4 164.034 193.806 161.21 193.806 158.936H187.806C187.806 159.847 187.708 160.408 187.611 160.714C187.517 161.01 187.484 160.886 187.718 160.719L191.205 165.601ZM193.806 158.936V119H187.806V158.936H193.806ZM190.806 122H210.006V116H190.806V122ZM207.006 119V152.696H213.006V119H207.006ZM207.006 152.696C207.006 158.035 206.658 162.187 206.015 165.227L211.885 166.469C212.65 162.853 213.006 158.237 213.006 152.696H207.006ZM206.015 165.227C205.398 168.142 204.276 170.495 202.709 172.375L207.318 176.217C209.591 173.489 211.093 170.21 211.885 166.469L206.015 165.227ZM202.709 172.375C201.242 174.136 199.185 175.439 196.362 176.199L197.922 181.993C201.754 180.961 204.946 179.064 207.318 176.217L202.709 172.375ZM196.362 176.199C193.386 177 189.356 177.44 184.182 177.44V183.44C189.631 183.44 194.241 182.984 197.922 181.993L196.362 176.199ZM184.182 177.44C179.007 177.44 174.977 177 172.002 176.199L170.442 181.993C174.122 182.984 178.732 183.44 184.182 183.44V177.44ZM172.016 176.203C169.264 175.448 167.229 174.149 165.75 172.375L161.141 176.217C163.503 179.051 166.652 180.952 170.428 181.989L172.016 176.203ZM165.75 172.375C164.183 170.495 163.061 168.142 162.445 165.227L156.575 166.469C157.366 170.21 158.868 173.489 161.141 176.217L165.75 172.375ZM162.445 165.227C161.802 162.187 161.454 158.035 161.454 152.696H155.454C155.454 158.237 155.81 162.853 156.575 166.469L162.445 165.227ZM161.454 152.696V119H155.454V152.696H161.454ZM158.454 122H177.654V116H158.454V122ZM255.058 162.083L256.498 178.211L262.474 177.677L261.034 161.549L255.058 162.083ZM258.342 175.171C254.786 176.639 250.149 177.44 244.318 177.44V183.44C250.647 183.44 256.123 182.577 260.631 180.717L258.342 175.171ZM244.318 177.44C238.409 177.44 233.882 176.813 230.608 175.684L228.652 181.356C232.802 182.787 238.067 183.44 244.318 183.44V177.44ZM230.624 175.689C227.46 174.579 225.087 172.883 223.37 170.646L218.61 174.298C221.117 177.565 224.504 179.901 228.637 181.351L230.624 175.689ZM223.37 170.646C221.548 168.272 220.248 165.448 219.502 162.12L213.647 163.432C214.565 167.528 216.208 171.168 218.61 174.298L223.37 170.646ZM219.502 162.12C218.734 158.693 218.326 154.353 218.326 149.048H212.326C212.326 154.623 212.751 159.435 213.647 163.432L219.502 162.12ZM218.326 149.048C218.326 143.743 218.734 139.403 219.502 135.976L213.647 134.664C212.751 138.661 212.326 143.473 212.326 149.048H218.326ZM219.504 135.966C220.252 132.569 221.555 129.72 223.37 127.354L218.61 123.702C216.202 126.84 214.56 130.519 213.645 134.674L219.504 135.966ZM223.366 127.36C226.613 123.149 232.952 120.56 243.55 120.56V114.56C232.261 114.56 223.559 117.283 218.615 123.696L223.366 127.36ZM243.55 120.56C245.783 120.56 248.469 120.796 251.629 121.292L252.559 115.364C249.192 114.836 246.182 114.56 243.55 114.56V120.56ZM251.694 121.301C254.95 121.739 257.074 122.272 258.278 122.802L260.694 117.31C258.699 116.432 255.895 115.813 252.494 115.355L251.694 121.301ZM256.542 119.479L253.662 134.167L259.55 135.321L262.43 120.633L256.542 119.479ZM257.238 131.811C252.916 130.88 248.893 130.4 245.182 130.4V136.4C248.384 136.4 251.977 136.816 255.975 137.677L257.238 131.811ZM245.182 130.4C241.72 130.4 238.705 130.693 236.692 131.651L239.272 137.069C239.947 136.747 241.732 136.4 245.182 136.4V130.4ZM236.692 131.651C233.985 132.941 232.966 135.523 232.966 138.2H238.966C238.966 137.573 239.078 137.287 239.126 137.195C239.148 137.153 239.163 137.138 239.169 137.132C239.176 137.126 239.203 137.102 239.272 137.069L236.692 131.651ZM232.966 138.2V163.352H238.966V138.2H232.966ZM235.363 166.291C238.059 166.844 240.789 167.12 243.55 167.12V161.12C241.192 161.12 238.866 160.884 236.569 160.413L235.363 166.291ZM243.55 167.12C249.269 167.12 254.458 166.313 259.071 164.635L257.021 158.997C253.187 160.391 248.712 161.12 243.55 161.12V167.12Z" fill="black" mask="url(#path-1-outside-1_159_71)"/>
<defs>
<linearGradient id="paint0_linear_159_71" x1="150" y1="3" x2="150" y2="287" gradientUnits="userSpaceOnUse">
<stop stop-color="#1F2869"/>
<stop offset="0.503125" stop-color="#355F9F"/>
<stop offset="0.971875" stop-color="#50A0D3"/>
</linearGradient>
<linearGradient id="paint1_linear_159_71" x1="150" y1="3" x2="150" y2="287" gradientUnits="userSpaceOnUse">
<stop stop-color="#FEE301"/>
<stop offset="1" stop-color="#F2A616"/>
</linearGradient>
</defs>
</svg>
